<svg width="30" height="30" viewBox="0 0 30 30" fill="none" xmlns="http://www.w3.org/2000/svg">
<path d="M30 15C30 23.2843 23.2843 30 15 30C6.71573 30 0 23.2843 0 15C0 6.71573 6.71573 0 15 0C23.2843 0 30 6.71573 30 15ZM3.26672 15C3.26672 21.4801 8.51989 26.7333 15 26.7333C21.4801 26.7333 26.7333 21.4801 26.7333 15C26.7333 8.51989 21.4801 3.26672 15 3.26672C8.51989 3.26672 3.26672 8.51989 3.26672 15Z" fill="#3C7628"/>
<path d="M24 9.99984L12 21.9998L6.5 16.4998L7.91 15.0898L12 19.1698L22.59 8.58984L24 9.99984Z" fill="#3C7628"/>
</svg>
